<?xml version="1.0" encoding="utf-8"?>
<!-- Generator: Adobe Illustrator 28.1.0, SVG Export Plug-In . SVG Version: 6.00 Build 0)  -->
<svg version="1.1" id="Layer_1" xmlns="http://www.w3.org/2000/svg" xmlns:xlink="http://www.w3.org/1999/xlink" x="0px" y="0px"
	 viewBox="0 0 188.1 174.3" style="enable-background:new 0 0 188.1 174.3;" xml:space="preserve">
<style type="text/css">
	.st0{fill:#333333;}
	.st1{fill:none;stroke:#FFFFFF;stroke-width:2;stroke-miterlimit:10;}
	.st2{fill:#FFFFFF;}
</style>
<g>
	<g>
		<path class="st0" d="M73.3,172.9L52,133.2L18.8,151L1.4,118.5l33.1-17.8L13.1,61.1l38.9-21l17.4,32.3l33.2-17.9L85.2,22.3
			l38.8-20.9l60.2,111.8L73.3,172.9L73.3,172.9z"/>
		<path class="st1" d="M73.3,172.9L52,133.2L18.8,151L1.4,118.5l33.1-17.8L13.1,61.1l38.9-21l17.4,32.3l33.2-17.9L85.2,22.3
			l38.8-20.9l60.2,111.8L73.3,172.9L73.3,172.9z"/>
	</g>
	<polygon class="st2" points="81.2,91.1 104,97.2 98.2,119.8 92.9,118.3 97.8,100.8 80.2,95.8 	"/>
	<polygon class="st2" points="146.7,93.6 124.1,86.8 130.6,64.5 135.8,66 130.3,83.4 147.8,89 	"/>
	<rect x="151.2" y="4.1" transform="matrix(0.866 0.5 -0.5 0.866 26.9724 -77.7782)" class="st2" width="14.8" height="14.8"/>
	<rect x="178.6" y="44.4" transform="matrix(0.9363 -0.3512 0.3512 0.9363 -5.4376 67.279)" class="st2" width="8.4" height="8.4"/>
	<rect x="49.9" y="3.7" transform="matrix(0.866 0.5 -0.5 0.866 10.4917 -25.5892)" class="st2" width="6.2" height="6.2"/>
</g>
</svg>
