<svg xmlns="http://www.w3.org/2000/svg" width="25" height="25" fill="none"><path fill="#F2F2F2" d="M16.43 7.42C15.73 3.06 14.05 0 12.11 0 10.17 0 8.5 3.06 7.79 7.42h8.64Zm-9 4.69c0 1.08.05 2.12.15 3.12h9.05a30.62 30.62 0 0 0 0-6.25H7.58c-.1 1-.16 2.05-.16 3.13Zm15.85-4.69A12.14 12.14 0 0 0 15.56.51c1.2 1.65 2.01 4.13 2.44 6.91h5.28ZM8.65.51a12.13 12.13 0 0 0-7.7 6.91h5.27C6.64 4.64 7.46 2.16 8.65.51ZM23.8 8.98h-5.6a31.49 31.49 0 0 1 0 6.25h5.6a12 12 0 0 0 0-6.25ZM5.86 12.11c0-1.05.06-2.1.16-3.13H.42a12.22 12.22 0 0 0 0 6.25h5.6a32.1 32.1 0 0 1-.16-3.12Zm1.93 4.69c.7 4.36 2.38 7.42 4.32 7.42 1.94 0 3.61-3.06 4.32-7.42H7.8Zm7.78 6.91a12.15 12.15 0 0 0 7.71-6.91h-5.27c-.43 2.78-1.25 5.26-2.44 6.91ZM.94 16.8a12.13 12.13 0 0 0 7.72 6.91c-1.2-1.65-2.01-4.13-2.44-6.91H.94Z"/></svg>