<svg xmlns="http://www.w3.org/2000/svg" width="42" height="42" fill="none"><path fill="#F2F2F2" d="M40.5 36h-39A1.5 1.5 0 0 0 0 37.5v3A1.5 1.5 0 0 0 1.5 42h39a1.5 1.5 0 0 0 1.5-1.5v-3a1.5 1.5 0 0 0-1.5-1.5Zm0-12h-39A1.5 1.5 0 0 0 0 25.5v3A1.5 1.5 0 0 0 1.5 30h39a1.5 1.5 0 0 0 1.5-1.5v-3a1.5 1.5 0 0 0-1.5-1.5Zm0-12h-39A1.5 1.5 0 0 0 0 13.5v3A1.5 1.5 0 0 0 1.5 18h39a1.5 1.5 0 0 0 1.5-1.5v-3a1.5 1.5 0 0 0-1.5-1.5Zm0-12h-39A1.5 1.5 0 0 0 0 1.5v3A1.5 1.5 0 0 0 1.5 6h39A1.5 1.5 0 0 0 42 4.5v-3A1.5 1.5 0 0 0 40.5 0Z"/></svg>