<svg xmlns="http://www.w3.org/2000/svg" xml:space="preserve" width="800" height="800" viewBox="0 0 416.98 416.98">
  <path d="M356 61.16c-81.37-81.47-213.37-81.56-294.84-.19-81.47 81.38-81.56 213.38-.18 294.85 81.36 81.47 213.37 81.56 294.84.19 81.47-81.37 81.56-213.38.18-294.85zM237.6 340.79c0 3.21-2.6 5.82-5.82 5.82H185.2a5.82 5.82 0 0 1-5.82-5.82v-172.9c0-3.22 2.6-5.83 5.82-5.83h46.58c3.21 0 5.82 2.6 5.82 5.82v172.9zM208.49 137.9a33.8 33.8 0 0 1-33.77-33.76 33.8 33.8 0 0 1 33.77-33.77 33.8 33.8 0 0 1 33.77 33.77 33.8 33.8 0 0 1-33.77 33.76z"/>
</svg>
