<?xml version="1.0" encoding="UTF-8"?>
<svg id="Layer_2" data-name="Layer 2" xmlns="http://www.w3.org/2000/svg" viewBox="0 0 181.06 181.28">
  <defs>
    <style>
      .cls-1 {
        fill: #fff;
      }

      .cls-2, .cls-3 {
        fill: #333;
      }

      .cls-2, .cls-4 {
        stroke: #fff;
        stroke-miterlimit: 10;
        stroke-width: 2px;
      }

      .cls-4 {
        fill: none;
      }
    </style>
  </defs>
  <g id="Layer_1-2" data-name="Layer 1">
    <g id="Original">
      <rect class="cls-4" x="27.52" y="27.52" width="126.03" height="126.03" transform="translate(90.53 218.56) rotate(-135)"/>
      <rect class="cls-1" x="31.26" y="31.3" width="118.63" height="118.63" transform="translate(90.55 218.73) rotate(-135)"/>
      <polygon class="cls-3" points="90.62 14.4 89.36 179.94 90.51 181.28 92.09 179.53 90.62 14.4"/>
      <polygon class="cls-3" points="90.61 14.4 17.55 109.09 10.98 102.51 90.61 14.4"/>
      <polygon class="cls-3" points="90.61 14.39 163.67 109.08 170.25 102.5 90.61 14.39"/>
      <g>
        <polygon class="cls-2" points="128.56 128.56 166.68 90.45 128.56 52.34 115.02 65.88 126.42 77.28 115.4 88.3 104 76.9 90.45 90.45 103.81 103.81 114.83 92.79 126.23 104.19 115.21 115.21 128.56 128.56"/>
        <polygon class="cls-2" points="52.5 128.73 66.05 115.18 77.45 126.58 88.47 115.56 77.07 104.16 90.61 90.61 77.26 77.26 66.24 88.27 54.84 76.88 65.86 65.86 52.5 52.5 14.39 90.61 52.5 128.73"/>
        <polygon class="cls-2" points="128.56 128.56 115.02 115.02 126.42 103.62 115.4 92.6 104 104 90.45 90.45 77.09 103.81 88.11 114.83 76.71 126.23 65.69 115.21 52.34 128.56 90.45 166.68 128.56 128.56"/>
      </g>
      <g>
        <polygon class="cls-3" points="94.67 74.55 117.24 74.55 102.82 63.82 102.82 31.1 94.67 31.1 94.67 74.55"/>
        <polygon class="cls-3" points="86.78 74.55 64.21 74.55 78.63 63.82 78.63 31.1 86.78 31.1 86.78 74.55"/>
      </g>
    </g>
  </g>
</svg>