<svg width="194" height="73" viewBox="0 0 194 73" fill="none" xmlns="http://www.w3.org/2000/svg">
<path d="M7.06201 41.842L6.29013 42.8455L31.1204 67.6758L31.1334 65.9134L7.06201 41.842Z" fill="#F2F2F2"/>
<path d="M32.0837 65.9292L32.1003 67.6916L56.9135 42.8783L56.1396 41.8733L32.0837 65.9292Z" fill="#F2F2F2"/>
<path d="M1.77708 36.5575L31.5574 6.77712L61.3966 36.6163L58.3426 39.6703L59.1878 40.604L63.1737 36.6181L31.5557 5L-4.01748e-05 36.5557L4.00858 40.5643L4.85191 39.6323L1.77708 36.5575Z" fill="#F2F2F2"/>
<path d="M31.573 10.0531L31.578 10.0581L31.5755 10.0556L31.578 10.0581L58.0544 39.3475L60.7863 36.6156L31.5581 7.38745L2.38758 36.558L5.14212 39.3125L31.5755 10.0556L7.32752 41.4979L31.1378 65.3082L31.578 10.0581L31.573 10.0531Z" fill="#F2F2F2"/>
<path d="M32.0782 65.3239L55.8734 41.5286L31.5781 10.0581L32.0782 65.3239Z" fill="#F2F2F2"/>
<path d="M44.8226 49.8103L58.0763 36.5565L44.7964 23.2766L40.085 27.988L44.0567 31.9596L40.2257 35.7907L36.254 31.819L31.5426 36.5303L36.1968 41.1845L40.0278 37.3534L43.9995 41.3251L40.1684 45.1561L44.8226 49.8103Z" fill="#222222" stroke="#F2F2F2" stroke-width="2" stroke-miterlimit="10"/>
<path d="M18.3455 49.8406L23.0569 45.1292L27.0285 49.1009L30.8596 45.2698L26.8879 41.2982L31.5993 36.5868L26.9451 31.9327L23.1141 35.7637L19.1424 31.7921L22.9735 27.961L18.3193 23.3069L5.0656 36.5606L18.3455 49.8406Z" fill="#222222" stroke="#F2F2F2" stroke-width="2" stroke-miterlimit="10"/>
<path d="M44.8224 49.8102L40.1018 45.0895L44.0656 41.1257L40.227 37.2871L36.2632 41.2509L31.5425 36.5302L26.8976 41.1752L30.7362 45.0138L26.7724 48.9776L22.9337 45.139L18.2888 49.784L31.5687 63.0639L44.8224 49.8102Z" fill="#222222" stroke="#F2F2F2" stroke-width="2" stroke-miterlimit="10"/>
<path d="M33.0068 30.9959L40.8635 31.0036L35.841 27.2648L35.8298 15.8735L32.9918 15.8732L33.0068 30.9959Z" fill="#222222"/>
<path d="M30.2598 30.9931L22.4031 30.9853L27.4181 27.2563L27.4069 15.8651L30.2449 15.8703L30.2598 30.9931Z" fill="#222222"/>
<path d="M77.6596 34.4373C76.3896 34.4373 75.2539 34.1694 74.242 33.6439C73.2302 33.1183 72.4455 32.3764 71.8673 31.449C71.2891 30.5216 71 29.4705 71 28.3061V26.9253C71 26.8428 71.0413 26.8016 71.1342 26.8016H74.9751C75.068 26.8016 75.1093 26.8531 75.1093 26.9562V28.3061C75.1093 29.048 75.3468 29.6457 75.8218 30.1094C76.2967 30.5731 76.9059 30.7998 77.6596 30.7998C78.3411 30.7998 78.9296 30.5525 79.4252 30.0476C79.9208 29.5426 80.1686 28.9656 80.1686 28.3061V13.3644C80.1686 13.282 80.2099 13.2407 80.3028 13.2407H84.1127C84.2056 13.2407 84.2469 13.2923 84.2469 13.3953L84.2779 28.3061C84.2779 29.4087 83.9785 30.4288 83.3796 31.3562C82.7808 32.294 81.9755 33.0359 80.9843 33.5923C79.9827 34.1488 78.878 34.4373 77.6493 34.4373H77.6596Z" fill="#F2F2F2"/>
<path d="M93.8076 34.1382C93.7146 34.1382 93.6733 34.0866 93.6733 33.9836L93.7043 13.3331C93.7043 13.2507 93.7456 13.2095 93.8385 13.2095H104.752C104.845 13.2095 104.886 13.261 104.886 13.3641V16.7337C104.886 16.8161 104.845 16.8573 104.752 16.8573H97.7827V21.5459H104.752C104.845 21.5459 104.886 21.5871 104.886 21.6696L104.917 25.0701C104.917 25.1525 104.876 25.1937 104.783 25.1937H97.7827V30.4594H104.783C104.876 30.4594 104.917 30.5109 104.917 30.614V34.0454C104.917 34.1278 104.876 34.1691 104.783 34.1691H93.7972L93.8076 34.1382Z" fill="#F2F2F2"/>
<path d="M114.881 34.1382C114.788 34.1382 114.747 34.0866 114.747 33.9836L114.819 13.3331C114.819 13.2507 114.861 13.2095 114.954 13.2095H121.82C123.048 13.2095 124.174 13.4774 125.206 14.0029C126.239 14.5388 127.054 15.2498 127.674 16.136C128.283 17.0325 128.593 18.032 128.593 19.1552C128.593 19.8972 128.469 20.567 128.221 21.1543C127.973 21.7417 127.674 22.2466 127.333 22.6588C126.992 23.071 126.683 23.3801 126.414 23.5759C127.643 24.7816 128.252 26.1933 128.252 27.8111L128.283 33.9733C128.283 34.0763 128.221 34.1279 128.118 34.1279H124.277C124.184 34.1279 124.143 34.0969 124.143 34.0351V27.8111C124.143 27.0898 123.854 26.4612 123.276 25.9357C122.697 25.3998 121.985 25.1422 121.149 25.1422H118.908L118.877 33.9836C118.877 34.0866 118.836 34.1382 118.743 34.1382H114.902H114.881ZM118.898 21.5356H121.82C122.522 21.5356 123.141 21.3089 123.689 20.8452C124.236 20.3815 124.504 19.825 124.504 19.1655C124.504 18.506 124.236 17.9702 123.709 17.5168C123.172 17.0531 122.542 16.8264 121.82 16.8264H118.898V21.5459V21.5356Z" fill="#F2F2F2"/>
<path d="M138.071 34.1382C137.978 34.1382 137.937 34.0866 137.937 33.9836L138.009 13.3331C138.009 13.2507 138.05 13.2095 138.143 13.2095H145.009C146.238 13.2095 147.363 13.4774 148.396 14.0029C149.428 14.5388 150.244 15.2498 150.863 16.136C151.473 17.0325 151.782 18.032 151.782 19.1552C151.782 19.8972 151.658 20.567 151.411 21.1543C151.163 21.7417 150.863 22.2466 150.523 22.6588C150.182 23.071 149.872 23.3801 149.604 23.5759C150.832 24.7816 151.442 26.1933 151.442 27.8111L151.473 33.9733C151.473 34.0763 151.411 34.1279 151.307 34.1279H147.466C147.374 34.1279 147.332 34.0969 147.332 34.0351V27.8111C147.332 27.0898 147.043 26.4612 146.465 25.9357C145.887 25.3998 145.174 25.1422 144.338 25.1422H142.097L142.067 33.9836C142.067 34.0866 142.025 34.1382 141.932 34.1382H138.091H138.071ZM142.087 21.5356H145.009C145.711 21.5356 146.331 21.3089 146.878 20.8452C147.425 20.3815 147.694 19.825 147.694 19.1655C147.694 18.506 147.425 17.9702 146.899 17.5168C146.362 17.0531 145.732 16.8264 145.009 16.8264H142.087V21.5459V21.5356Z" fill="#F2F2F2"/>
<path d="M161.25 34.1382C161.158 34.1382 161.116 34.0866 161.116 33.9836L161.147 13.3331C161.147 13.2507 161.188 13.2095 161.281 13.2095H172.195C172.288 13.2095 172.329 13.261 172.329 13.3641V16.7337C172.329 16.8161 172.288 16.8573 172.195 16.8573H165.226V21.5459H172.195C172.288 21.5459 172.329 21.5871 172.329 21.6696L172.36 25.0701C172.36 25.1525 172.319 25.1937 172.226 25.1937H165.226V30.4594H172.226C172.319 30.4594 172.36 30.5109 172.36 30.614V34.0454C172.36 34.1278 172.319 34.1691 172.226 34.1691H161.24L161.25 34.1382Z" fill="#F2F2F2"/>
<path d="M182.334 34.1382C182.242 34.1382 182.2 34.0867 182.2 33.9836L182.231 13.3538C182.231 13.2507 182.283 13.1992 182.396 13.1992H186.165C186.279 13.1992 186.33 13.2507 186.33 13.3538L186.299 30.4285H193.3C193.413 30.4285 193.465 30.4801 193.465 30.5831V33.9836C193.465 34.0867 193.403 34.1382 193.3 34.1382H182.314H182.334Z" fill="#F2F2F2"/>
<path d="M71.1342 59.158C71.0413 59.158 71 59.1065 71 59.0034L71.031 38.3736C71.031 38.2705 71.0826 38.219 71.1962 38.219H74.9648C75.0784 38.219 75.13 38.2705 75.13 38.3736L75.099 55.4483H82.0994C82.2129 55.4483 82.2646 55.4998 82.2646 55.6029V59.0034C82.2646 59.1065 82.2026 59.158 82.0994 59.158H71.1342Z" fill="#F2F2F2"/>
<path d="M100.333 59.4568C99.1353 59.4568 98.0202 59.1785 96.998 58.6324C95.9758 58.0862 95.1705 57.3443 94.5716 56.4272C93.9728 55.5101 93.6733 54.4899 93.6733 53.3873L93.7456 38.3529C93.7456 38.2705 93.7869 38.2292 93.8798 38.2292H97.6898C97.7827 38.2292 97.824 38.2705 97.824 38.3529V53.3873C97.824 54.0675 98.0718 54.6445 98.5571 55.1185C99.0423 55.5925 99.6412 55.8295 100.343 55.8295C101.045 55.8295 101.675 55.5925 102.16 55.1185C102.646 54.6445 102.894 54.0675 102.894 53.3873V38.3529C102.894 38.2705 102.935 38.2292 103.028 38.2292H106.838C106.931 38.2292 106.972 38.2705 106.972 38.3529L107.044 53.3873C107.044 54.5105 106.745 55.5307 106.146 56.4581C105.547 57.3752 104.742 58.1069 103.73 58.653C102.718 59.1992 101.593 59.4671 100.343 59.4671L100.333 59.4568Z" fill="#F2F2F2"/>
<path d="M121.407 59.4568C120.178 59.4568 119.063 59.1785 118.061 58.6324C117.05 58.0863 116.244 57.3546 115.645 56.4375C115.046 55.5307 114.747 54.5209 114.747 53.4183V52.0374C114.747 51.9344 114.799 51.8829 114.912 51.8829H118.722C118.815 51.8829 118.856 51.9344 118.856 52.0374V53.4183C118.856 54.0778 119.104 54.6445 119.6 55.1185C120.095 55.5925 120.694 55.8295 121.396 55.8295C122.098 55.8295 122.697 55.5925 123.193 55.1082C123.689 54.6239 123.936 54.0674 123.936 53.4286C123.936 52.6866 123.389 52.0477 122.305 51.5016C121.944 51.3264 121.376 51.0379 120.601 50.6566C119.827 50.2754 119.104 49.9147 118.423 49.5746C117.173 48.9358 116.255 48.1217 115.656 47.1531C115.057 46.1844 114.757 45.0818 114.757 43.8556C114.757 42.7324 115.067 41.7225 115.676 40.8363C116.285 39.9501 117.101 39.2391 118.103 38.7136C119.104 38.188 120.209 37.9304 121.386 37.9304C122.563 37.9304 123.689 38.1983 124.7 38.7239C125.712 39.2597 126.518 39.9707 127.116 40.8569C127.715 41.7534 128.015 42.7427 128.015 43.8453V46.3081C128.015 46.3905 127.973 46.4317 127.88 46.4317H124.071C123.978 46.4317 123.936 46.3905 123.936 46.3081L123.905 43.8453C123.905 43.1446 123.658 42.5778 123.162 42.1347C122.666 41.6916 122.078 41.4752 121.396 41.4752C120.715 41.4752 120.095 41.7122 119.6 42.1862C119.104 42.6602 118.856 43.2167 118.856 43.8556C118.856 44.4945 119.011 45.0715 119.331 45.5146C119.651 45.9577 120.23 46.3802 121.066 46.7821C121.18 46.8439 121.396 46.947 121.727 47.1015C122.057 47.2561 122.408 47.421 122.801 47.6168C123.183 47.8125 123.534 47.9774 123.833 48.1114C124.143 48.2557 124.329 48.3381 124.391 48.3793C125.526 48.9358 126.425 49.6262 127.075 50.4402C127.736 51.2543 128.056 52.2435 128.056 53.4286C128.056 54.6136 127.757 55.6028 127.158 56.5096C126.559 57.4165 125.754 58.1481 124.742 58.6736C123.73 59.2095 122.615 59.4671 121.396 59.4671L121.407 59.4568Z" fill="#F2F2F2"/>
<path d="M142.655 59.158C142.562 59.158 142.521 59.1065 142.521 59.0034V41.8668H138.102C137.988 41.8668 137.937 41.8153 137.937 41.7123L137.967 38.3426C137.967 38.2602 138.009 38.219 138.102 38.219H151.018C151.132 38.219 151.183 38.2602 151.183 38.3426V41.7123C151.183 41.8153 151.142 41.8668 151.049 41.8668H146.599L146.63 59.0034C146.63 59.1065 146.589 59.158 146.496 59.158H142.655Z" fill="#F2F2F2"/>
<path d="M161.25 59.1579C161.158 59.1579 161.116 59.1064 161.116 59.0034L161.188 38.3529C161.188 38.2705 161.23 38.2292 161.323 38.2292H168.189C169.417 38.2292 170.543 38.4972 171.575 39.0227C172.608 39.5585 173.424 40.2696 174.043 41.1558C174.652 42.0523 174.962 43.0518 174.962 44.175C174.962 44.917 174.838 45.5868 174.59 46.1741C174.343 46.7615 174.043 47.2664 173.702 47.6786C173.362 48.0908 173.052 48.3999 172.783 48.5957C174.012 49.8013 174.621 51.2131 174.621 52.8309L174.652 58.9931C174.652 59.0961 174.59 59.1476 174.487 59.1476H170.646C170.553 59.1476 170.512 59.1167 170.512 59.0549V52.8309C170.512 52.1096 170.223 51.481 169.645 50.9555C169.066 50.4299 168.354 50.162 167.518 50.162H165.277L165.246 59.0034C165.246 59.1064 165.205 59.1579 165.112 59.1579H161.271H161.25ZM165.267 46.5554H168.189C168.891 46.5554 169.51 46.3287 170.058 45.865C170.605 45.4013 170.873 44.8448 170.873 44.1853C170.873 43.5258 170.605 42.99 170.078 42.5366C169.541 42.0729 168.912 41.8462 168.189 41.8462H165.267V46.5657V46.5554Z" fill="#F2F2F2"/>
<path d="M182.334 59.1579C182.242 59.1579 182.2 59.1064 182.2 59.0034L182.231 38.3529C182.231 38.2705 182.272 38.2292 182.365 38.2292H193.279C193.372 38.2292 193.413 38.2808 193.413 38.3838V41.7534C193.413 41.8359 193.372 41.8771 193.279 41.8771H186.31V46.5657H193.279C193.372 46.5657 193.413 46.6069 193.413 46.6893L193.444 50.0899C193.444 50.1723 193.403 50.2135 193.31 50.2135H186.31V55.4792H193.31C193.403 55.4792 193.444 55.5307 193.444 55.6338V59.0652C193.444 59.1476 193.403 59.1889 193.31 59.1889H182.324L182.334 59.1579Z" fill="#F2F2F2"/>
</svg>
