<svg width="30" height="29" viewBox="0 0 30 29" fill="none" xmlns="http://www.w3.org/2000/svg">
<path d="M0 0H30V28.5246H0V0ZM27.5 2.47612H2.49997V26.0485H27.5V2.47612ZM22.825 22.5572H20.325V14.8566C20.325 13.2532 19.0127 11.9534 17.3938 11.9534C15.7749 11.9534 14.4625 13.2532 14.4625 14.8566V22.5572H11.9625V14.8566C11.9625 11.8857 14.3942 9.47732 17.3938 9.47732C20.3933 9.47732 22.825 11.8857 22.825 14.8566L22.825 22.5572ZM9.675 22.5572H7.17497V9.52055H9.675V22.5572ZM9.62499 7.15591C9.62499 7.81231 9.08772 8.34445 8.42498 8.34445C7.76224 8.34445 7.22497 7.81228 7.22497 7.15588C7.22497 6.49948 7.76224 5.96735 8.42498 5.96735C9.08772 5.96735 9.62499 6.49951 9.62499 7.15591ZM14.4625 15.4508H11.9625V9.52055H14.4625V15.4508Z" fill="#222222"/>
</svg>
