<svg xmlns="http://www.w3.org/2000/svg" width="33" height="23" fill="none">
  <path fill="#F2F2F2" d="M32.05 7.6c.25-.2.61-.02.61.28v12.24a2.94 2.94 0 0 1-3 2.88h-26c-1.66 0-3-1.29-3-2.88V7.88c0-.3.36-.46.6-.28 1.4 1.04 3.26 2.37 9.64 6.8 1.32.93 3.54 2.87 5.76 2.86 2.23.01 4.5-1.97 5.77-2.86 6.37-4.43 8.22-5.76 9.62-6.8Zm-15.39 7.73c1.45.03 3.54-1.75 4.59-2.48 8.3-5.76 8.92-6.27 10.84-7.7.36-.27.57-.7.57-1.14V2.88a2.94 2.94 0 0 0-3-2.88h-26C2 0 .66 1.29.66 2.88V4c0 .45.21.86.58 1.14 1.9 1.43 2.54 1.94 10.83 7.7 1.05.73 3.14 2.5 4.59 2.48Z"/>
</svg>
