<svg width="30" height="31" viewBox="0 0 30 31" fill="none" xmlns="http://www.w3.org/2000/svg">
<path d="M28.1113 7.38237H15.3689V4.711H28.1113V7.38237ZM23.9533 12.0933L22.0647 10.2047L26.2227 6.04667L22.0647 1.88867L23.9533 0L30 6.04667L23.9533 12.0933ZM20.2695 30.3295C17.8033 30.2411 15.5095 29.5824 13.4908 28.4824L13.571 28.5223C10.9665 27.1616 8.73393 25.5009 6.80035 23.5442L6.79774 23.5415C4.01336 20.8622 1.87049 17.5365 0.609013 13.8047L0.558732 13.6334C-0.509778 10.0016 -0.0356449 6.93889 1.89443 5.00753L6.39306 0.511604L15.1284 9.24035L11.669 12.7906C11.4124 13.0469 11.2537 13.4011 11.2537 13.7923C11.2537 14.1835 11.4124 14.5378 11.669 14.7941L15.5692 18.7077C15.8298 18.9658 16.1884 19.1253 16.5844 19.1253C16.9803 19.1253 17.339 18.9658 17.5996 18.7076L21.1364 15.2069L29.8785 23.949L25.3305 28.4462C24.0867 29.6165 22.4069 30.3356 20.559 30.3356C20.4572 30.3356 20.3559 30.3333 20.2551 30.329L20.2695 30.3295ZM6.39297 4.28355L3.78439 6.89752C2.58226 8.09966 2.34045 10.2367 3.11651 12.8801C4.29576 16.3357 6.20741 19.2777 8.67828 21.6398L8.68638 21.6475C12.3916 25.3527 16.8341 27.6581 20.2695 27.6581C20.3521 27.6637 20.4486 27.667 20.5458 27.667C21.6623 27.667 22.6798 27.2436 23.4468 26.5488L23.4431 26.5521L26.0811 23.9395L21.1203 18.9761L19.4734 20.6056C18.7301 21.3431 17.7064 21.7987 16.5763 21.7987C15.4461 21.7987 14.4224 21.343 13.6789 20.6053L13.6792 20.6056L9.77895 16.692C9.03907 15.9523 8.58147 14.9304 8.58147 13.8016C8.58147 12.6728 9.03907 11.6508 9.77892 10.9112L11.3817 9.27092L6.39297 4.28355Z" fill="#222222"/>
</svg>
