<svg width="32" height="33" viewBox="0 0 32 33" fill="none" xmlns="http://www.w3.org/2000/svg">
<path d="M29.5625 10.0408H2.4375C1.36746 10.0408 0.5 9.01745 0.5 7.75509V3.18366C0.5 1.92131 1.36746 0.897949 2.4375 0.897949H29.5625C30.6325 0.897949 31.5 1.92131 31.5 3.18366V7.75509C31.5 9.01745 30.6325 10.0408 29.5625 10.0408ZM26.6562 3.75509C25.8537 3.75509 25.2031 4.52259 25.2031 5.46938C25.2031 6.41616 25.8537 7.18366 26.6562 7.18366C27.4588 7.18366 28.1094 6.41616 28.1094 5.46938C28.1094 4.52259 27.4588 3.75509 26.6562 3.75509ZM22.7812 3.75509C21.9787 3.75509 21.3281 4.52259 21.3281 5.46938C21.3281 6.41616 21.9787 7.18366 22.7812 7.18366C23.5838 7.18366 24.2344 6.41616 24.2344 5.46938C24.2344 4.52259 23.5838 3.75509 22.7812 3.75509ZM29.5625 21.4694H2.4375C1.36746 21.4694 0.5 20.446 0.5 19.1837V14.6122C0.5 13.3499 1.36746 12.3265 2.4375 12.3265H29.5625C30.6325 12.3265 31.5 13.3499 31.5 14.6122V19.1837C31.5 20.446 30.6325 21.4694 29.5625 21.4694ZM26.6562 15.1837C25.8537 15.1837 25.2031 15.9512 25.2031 16.8979C25.2031 17.8447 25.8537 18.6122 26.6562 18.6122C27.4588 18.6122 28.1094 17.8447 28.1094 16.8979C28.1094 15.9512 27.4588 15.1837 26.6562 15.1837ZM22.7812 15.1837C21.9787 15.1837 21.3281 15.9512 21.3281 16.8979C21.3281 17.8447 21.9787 18.6122 22.7812 18.6122C23.5838 18.6122 24.2344 17.8447 24.2344 16.8979C24.2344 15.9512 23.5838 15.1837 22.7812 15.1837ZM29.5625 32.898H2.4375C1.36746 32.898 0.5 31.8746 0.5 30.6122V26.0408C0.5 24.7785 1.36746 23.7551 2.4375 23.7551H29.5625C30.6325 23.7551 31.5 24.7785 31.5 26.0408V30.6122C31.5 31.8746 30.6325 32.898 29.5625 32.898ZM26.6562 26.6122C25.8537 26.6122 25.2031 27.3797 25.2031 28.3265C25.2031 29.2733 25.8537 30.0408 26.6562 30.0408C27.4588 30.0408 28.1094 29.2733 28.1094 28.3265C28.1094 27.3797 27.4588 26.6122 26.6562 26.6122ZM22.7812 26.6122C21.9787 26.6122 21.3281 27.3797 21.3281 28.3265C21.3281 29.2733 21.9787 30.0408 22.7812 30.0408C23.5838 30.0408 24.2344 29.2733 24.2344 28.3265C24.2344 27.3797 23.5838 26.6122 22.7812 26.6122Z" fill="#F2F2F2"/>
</svg>
